<mxfile host="app.diagrams.net" modified="2024-06-06T20:30:10.567Z" agent="Mozilla/5.0 (Windows NT 10.0; Win64; x64) AppleWebKit/537.36 (KHTML, like Gecko) Chrome/125.0.0.0 Safari/537.36 Edg/125.0.0.0" etag="TE8bF3bM6MR4VvUI5Bn7" version="24.4.9" type="github">
  <diagram name="Page-1" id="p1OdOEI3LlbutLCduDBX">
    <mxGraphModel dx="3160" dy="2408" grid="1" gridSize="10" guides="1" tooltips="1" connect="1" arrows="1" fold="1" page="1" pageScale="1" pageWidth="850" pageHeight="1100" math="0" shadow="0">
      <root>
        <mxCell id="0" />
        <mxCell id="1" parent="0" />
        <mxCell id="F7WUBohVs05Vko2OsFq5-16" value="Objectives" style="swimlane;fontStyle=0;childLayout=stackLayout;horizontal=1;startSize=30;horizontalStack=0;resizeParent=1;resizeParentMax=0;resizeLast=0;collapsible=1;marginBottom=0;whiteSpace=wrap;html=1;" parent="1" vertex="1">
          <mxGeometry x="-570" y="-840" width="140" height="120" as="geometry" />
        </mxCell>
        <mxCell id="F7WUBohVs05Vko2OsFq5-17" value="Find the exit" style="text;strokeColor=none;fillColor=none;align=left;verticalAlign=middle;spacingLeft=4;spacingRight=4;overflow=hidden;points=[[0,0.5],[1,0.5]];portConstraint=eastwest;rotatable=0;whiteSpace=wrap;html=1;" parent="F7WUBohVs05Vko2OsFq5-16" vertex="1">
          <mxGeometry y="30" width="140" height="30" as="geometry" />
        </mxCell>
        <mxCell id="F7WUBohVs05Vko2OsFq5-18" value="Find the &quot;Requirements&quot;" style="text;strokeColor=none;fillColor=none;align=left;verticalAlign=middle;spacingLeft=4;spacingRight=4;overflow=hidden;points=[[0,0.5],[1,0.5]];portConstraint=eastwest;rotatable=0;whiteSpace=wrap;html=1;" parent="F7WUBohVs05Vko2OsFq5-16" vertex="1">
          <mxGeometry y="60" width="140" height="30" as="geometry" />
        </mxCell>
        <mxCell id="F7WUBohVs05Vko2OsFq5-31" value="Solve puzzles" style="text;html=1;align=center;verticalAlign=middle;resizable=0;points=[];autosize=1;strokeColor=none;fillColor=none;" parent="F7WUBohVs05Vko2OsFq5-16" vertex="1">
          <mxGeometry y="90" width="140" height="30" as="geometry" />
        </mxCell>
        <mxCell id="F7WUBohVs05Vko2OsFq5-25" value="Exit blocked : need the &quot;Requirements&quot; to unlock" style="text;html=1;align=center;verticalAlign=middle;resizable=0;points=[];autosize=1;strokeColor=none;fillColor=none;" parent="1" vertex="1">
          <mxGeometry x="-240" y="-830" width="280" height="30" as="geometry" />
        </mxCell>
        <mxCell id="F7WUBohVs05Vko2OsFq5-26" style="edgeStyle=orthogonalEdgeStyle;rounded=0;orthogonalLoop=1;jettySize=auto;html=1;entryX=-0.012;entryY=0.656;entryDx=0;entryDy=0;entryPerimeter=0;" parent="1" source="F7WUBohVs05Vko2OsFq5-17" target="F7WUBohVs05Vko2OsFq5-25" edge="1">
          <mxGeometry relative="1" as="geometry" />
        </mxCell>
        <mxCell id="F7WUBohVs05Vko2OsFq5-28" value="&quot;requirements&quot; needs an item or puzzle to be acquired" style="text;html=1;align=center;verticalAlign=middle;resizable=0;points=[];autosize=1;strokeColor=none;fillColor=none;" parent="1" vertex="1">
          <mxGeometry x="-240" y="-790" width="310" height="30" as="geometry" />
        </mxCell>
        <mxCell id="F7WUBohVs05Vko2OsFq5-30" style="edgeStyle=orthogonalEdgeStyle;rounded=0;orthogonalLoop=1;jettySize=auto;html=1;entryX=0.011;entryY=0.472;entryDx=0;entryDy=0;entryPerimeter=0;" parent="1" source="F7WUBohVs05Vko2OsFq5-18" target="F7WUBohVs05Vko2OsFq5-28" edge="1">
          <mxGeometry relative="1" as="geometry" />
        </mxCell>
        <mxCell id="F7WUBohVs05Vko2OsFq5-33" style="edgeStyle=orthogonalEdgeStyle;rounded=0;orthogonalLoop=1;jettySize=auto;html=1;entryX=0;entryY=0.5;entryDx=0;entryDy=0;" parent="1" source="F7WUBohVs05Vko2OsFq5-32" target="F7WUBohVs05Vko2OsFq5-18" edge="1">
          <mxGeometry relative="1" as="geometry" />
        </mxCell>
        <mxCell id="F7WUBohVs05Vko2OsFq5-32" value="Repeat till exit can be opened" style="text;html=1;align=center;verticalAlign=middle;resizable=0;points=[];autosize=1;strokeColor=none;fillColor=none;" parent="1" vertex="1">
          <mxGeometry x="-820" y="-770" width="180" height="30" as="geometry" />
        </mxCell>
        <mxCell id="F7WUBohVs05Vko2OsFq5-34" style="edgeStyle=orthogonalEdgeStyle;rounded=0;orthogonalLoop=1;jettySize=auto;html=1;entryX=0.014;entryY=0.5;entryDx=0;entryDy=0;entryPerimeter=0;" parent="1" source="F7WUBohVs05Vko2OsFq5-32" target="F7WUBohVs05Vko2OsFq5-31" edge="1">
          <mxGeometry relative="1" as="geometry" />
        </mxCell>
        <mxCell id="F7WUBohVs05Vko2OsFq5-35" value="Cultists" style="swimlane;fontStyle=0;childLayout=stackLayout;horizontal=1;startSize=30;horizontalStack=0;resizeParent=1;resizeParentMax=0;resizeLast=0;collapsible=1;marginBottom=0;whiteSpace=wrap;html=1;" parent="1" vertex="1">
          <mxGeometry x="-660" y="-430" width="140" height="120" as="geometry" />
        </mxCell>
        <mxCell id="F7WUBohVs05Vko2OsFq5-36" value="Interested in &quot;Companion&quot;" style="text;strokeColor=none;fillColor=none;align=left;verticalAlign=middle;spacingLeft=4;spacingRight=4;overflow=hidden;points=[[0,0.5],[1,0.5]];portConstraint=eastwest;rotatable=0;whiteSpace=wrap;html=1;" parent="F7WUBohVs05Vko2OsFq5-35" vertex="1">
          <mxGeometry y="30" width="140" height="30" as="geometry" />
        </mxCell>
        <mxCell id="F7WUBohVs05Vko2OsFq5-37" value="Can see within limited range" style="text;strokeColor=none;fillColor=none;align=left;verticalAlign=middle;spacingLeft=4;spacingRight=4;overflow=hidden;points=[[0,0.5],[1,0.5]];portConstraint=eastwest;rotatable=0;whiteSpace=wrap;html=1;" parent="F7WUBohVs05Vko2OsFq5-35" vertex="1">
          <mxGeometry y="60" width="140" height="30" as="geometry" />
        </mxCell>
        <mxCell id="F7WUBohVs05Vko2OsFq5-38" value="Can hear within limited range" style="text;strokeColor=none;fillColor=none;align=left;verticalAlign=middle;spacingLeft=4;spacingRight=4;overflow=hidden;points=[[0,0.5],[1,0.5]];portConstraint=eastwest;rotatable=0;whiteSpace=wrap;html=1;" parent="F7WUBohVs05Vko2OsFq5-35" vertex="1">
          <mxGeometry y="90" width="140" height="30" as="geometry" />
        </mxCell>
        <mxCell id="F7WUBohVs05Vko2OsFq5-39" value="Gameplay" style="rounded=0;whiteSpace=wrap;html=1;" parent="1" vertex="1">
          <mxGeometry x="-640" y="-1040" width="1320" height="60" as="geometry" />
        </mxCell>
        <mxCell id="F7WUBohVs05Vko2OsFq5-40" value="Objective" style="rounded=1;whiteSpace=wrap;html=1;" parent="1" vertex="1">
          <mxGeometry x="-640" y="-950" width="490" height="60" as="geometry" />
        </mxCell>
        <mxCell id="F7WUBohVs05Vko2OsFq5-41" value="Obstacles" style="rounded=1;whiteSpace=wrap;html=1;" parent="1" vertex="1">
          <mxGeometry x="-675" y="-660" width="500" height="60" as="geometry" />
        </mxCell>
        <mxCell id="F7WUBohVs05Vko2OsFq5-42" value="Enemies" style="swimlane;fontStyle=0;childLayout=stackLayout;horizontal=1;startSize=30;horizontalStack=0;resizeParent=1;resizeParentMax=0;resizeLast=0;collapsible=1;marginBottom=0;whiteSpace=wrap;html=1;" parent="1" vertex="1">
          <mxGeometry x="-495" y="-570" width="140" height="60" as="geometry" />
        </mxCell>
        <mxCell id="F7WUBohVs05Vko2OsFq5-43" value="Track Player" style="text;strokeColor=none;fillColor=none;align=left;verticalAlign=middle;spacingLeft=4;spacingRight=4;overflow=hidden;points=[[0,0.5],[1,0.5]];portConstraint=eastwest;rotatable=0;whiteSpace=wrap;html=1;" parent="F7WUBohVs05Vko2OsFq5-42" vertex="1">
          <mxGeometry y="30" width="140" height="30" as="geometry" />
        </mxCell>
        <mxCell id="F7WUBohVs05Vko2OsFq5-47" style="edgeStyle=orthogonalEdgeStyle;rounded=0;orthogonalLoop=1;jettySize=auto;html=1;entryX=0.005;entryY=0.355;entryDx=0;entryDy=0;entryPerimeter=0;" parent="1" source="F7WUBohVs05Vko2OsFq5-35" target="F7WUBohVs05Vko2OsFq5-42" edge="1">
          <mxGeometry relative="1" as="geometry" />
        </mxCell>
        <mxCell id="F7WUBohVs05Vko2OsFq5-53" style="edgeStyle=orthogonalEdgeStyle;rounded=0;orthogonalLoop=1;jettySize=auto;html=1;" parent="1" source="F7WUBohVs05Vko2OsFq5-54" edge="1">
          <mxGeometry relative="1" as="geometry">
            <mxPoint x="-520" y="-360" as="targetPoint" />
          </mxGeometry>
        </mxCell>
        <mxCell id="F7WUBohVs05Vko2OsFq5-49" value="(Evil)Catgirls" style="swimlane;fontStyle=0;childLayout=stackLayout;horizontal=1;startSize=30;horizontalStack=0;resizeParent=1;resizeParentMax=0;resizeLast=0;collapsible=1;marginBottom=0;whiteSpace=wrap;html=1;" parent="1" vertex="1">
          <mxGeometry x="-315" y="-430" width="140" height="150" as="geometry" />
        </mxCell>
        <mxCell id="F7WUBohVs05Vko2OsFq5-50" value="Not interested in &quot;Companion&quot;" style="text;strokeColor=none;fillColor=none;align=left;verticalAlign=middle;spacingLeft=4;spacingRight=4;overflow=hidden;points=[[0,0.5],[1,0.5]];portConstraint=eastwest;rotatable=0;whiteSpace=wrap;html=1;" parent="F7WUBohVs05Vko2OsFq5-49" vertex="1">
          <mxGeometry y="30" width="140" height="30" as="geometry" />
        </mxCell>
        <mxCell id="F7WUBohVs05Vko2OsFq5-51" value="Can see better" style="text;strokeColor=none;fillColor=none;align=left;verticalAlign=middle;spacingLeft=4;spacingRight=4;overflow=hidden;points=[[0,0.5],[1,0.5]];portConstraint=eastwest;rotatable=0;whiteSpace=wrap;html=1;" parent="F7WUBohVs05Vko2OsFq5-49" vertex="1">
          <mxGeometry y="60" width="140" height="30" as="geometry" />
        </mxCell>
        <mxCell id="F7WUBohVs05Vko2OsFq5-52" value="Can hear better" style="text;strokeColor=none;fillColor=none;align=left;verticalAlign=middle;spacingLeft=4;spacingRight=4;overflow=hidden;points=[[0,0.5],[1,0.5]];portConstraint=eastwest;rotatable=0;whiteSpace=wrap;html=1;" parent="F7WUBohVs05Vko2OsFq5-49" vertex="1">
          <mxGeometry y="90" width="140" height="30" as="geometry" />
        </mxCell>
        <mxCell id="F7WUBohVs05Vko2OsFq5-58" value="Attacks all human" style="text;html=1;align=center;verticalAlign=middle;resizable=0;points=[];autosize=1;strokeColor=none;fillColor=none;" parent="F7WUBohVs05Vko2OsFq5-49" vertex="1">
          <mxGeometry y="120" width="140" height="30" as="geometry" />
        </mxCell>
        <mxCell id="F7WUBohVs05Vko2OsFq5-55" style="edgeStyle=orthogonalEdgeStyle;rounded=0;orthogonalLoop=1;jettySize=auto;html=1;entryX=0.995;entryY=0.424;entryDx=0;entryDy=0;entryPerimeter=0;" parent="1" source="F7WUBohVs05Vko2OsFq5-50" target="F7WUBohVs05Vko2OsFq5-42" edge="1">
          <mxGeometry relative="1" as="geometry" />
        </mxCell>
        <mxCell id="F7WUBohVs05Vko2OsFq5-64" style="edgeStyle=orthogonalEdgeStyle;rounded=0;orthogonalLoop=1;jettySize=auto;html=1;" parent="1" source="F7WUBohVs05Vko2OsFq5-54" target="F7WUBohVs05Vko2OsFq5-60" edge="1">
          <mxGeometry relative="1" as="geometry" />
        </mxCell>
        <mxCell id="F7WUBohVs05Vko2OsFq5-54" value="Attack/Infect, if detected" style="text;html=1;align=center;verticalAlign=middle;resizable=0;points=[];autosize=1;strokeColor=none;fillColor=none;" parent="1" vertex="1">
          <mxGeometry x="-480" y="-270" width="150" height="30" as="geometry" />
        </mxCell>
        <mxCell id="F7WUBohVs05Vko2OsFq5-57" style="edgeStyle=orthogonalEdgeStyle;rounded=0;orthogonalLoop=1;jettySize=auto;html=1;" parent="1" source="F7WUBohVs05Vko2OsFq5-52" target="F7WUBohVs05Vko2OsFq5-54" edge="1">
          <mxGeometry relative="1" as="geometry" />
        </mxCell>
        <mxCell id="F7WUBohVs05Vko2OsFq5-60" value="Unknown creature?" style="swimlane;fontStyle=0;childLayout=stackLayout;horizontal=1;startSize=30;horizontalStack=0;resizeParent=1;resizeParentMax=0;resizeLast=0;collapsible=1;marginBottom=0;whiteSpace=wrap;html=1;" parent="1" vertex="1">
          <mxGeometry x="-495" y="-150" width="140" height="90" as="geometry" />
        </mxCell>
        <mxCell id="F7WUBohVs05Vko2OsFq5-61" value="Created from cultist due to infection by (evil)catgirls" style="text;strokeColor=none;fillColor=none;align=left;verticalAlign=middle;spacingLeft=4;spacingRight=4;overflow=hidden;points=[[0,0.5],[1,0.5]];portConstraint=eastwest;rotatable=0;whiteSpace=wrap;html=1;" parent="F7WUBohVs05Vko2OsFq5-60" vertex="1">
          <mxGeometry y="30" width="140" height="60" as="geometry" />
        </mxCell>
        <mxCell id="F7WUBohVs05Vko2OsFq5-67" value="Player" style="rounded=1;whiteSpace=wrap;html=1;" parent="1" vertex="1">
          <mxGeometry x="90" y="-950" width="640" height="60" as="geometry" />
        </mxCell>
        <mxCell id="F7WUBohVs05Vko2OsFq5-94" style="edgeStyle=orthogonalEdgeStyle;rounded=0;orthogonalLoop=1;jettySize=auto;html=1;entryX=0.5;entryY=0;entryDx=0;entryDy=0;" parent="1" source="F7WUBohVs05Vko2OsFq5-68" target="F7WUBohVs05Vko2OsFq5-74" edge="1">
          <mxGeometry relative="1" as="geometry" />
        </mxCell>
        <mxCell id="F7WUBohVs05Vko2OsFq5-68" value="Main Character(Unknown&lt;span style=&quot;background-color: initial;&quot;&gt;&amp;nbsp;Woman)&lt;/span&gt;" style="swimlane;fontStyle=0;childLayout=stackLayout;horizontal=1;startSize=30;horizontalStack=0;resizeParent=1;resizeParentMax=0;resizeLast=0;collapsible=1;marginBottom=0;whiteSpace=wrap;html=1;" parent="1" vertex="1">
          <mxGeometry x="230" y="-860" width="170" height="90" as="geometry" />
        </mxCell>
        <mxCell id="F7WUBohVs05Vko2OsFq5-69" value="Story : got captured to be turned into a catgirl?" style="text;strokeColor=none;fillColor=none;align=left;verticalAlign=middle;spacingLeft=4;spacingRight=4;overflow=hidden;points=[[0,0.5],[1,0.5]];portConstraint=eastwest;rotatable=0;whiteSpace=wrap;html=1;" parent="F7WUBohVs05Vko2OsFq5-68" vertex="1">
          <mxGeometry y="30" width="170" height="30" as="geometry" />
        </mxCell>
        <mxCell id="F7WUBohVs05Vko2OsFq5-70" value="Teams up with &quot;Companion&quot;" style="text;strokeColor=none;fillColor=none;align=left;verticalAlign=middle;spacingLeft=4;spacingRight=4;overflow=hidden;points=[[0,0.5],[1,0.5]];portConstraint=eastwest;rotatable=0;whiteSpace=wrap;html=1;" parent="F7WUBohVs05Vko2OsFq5-68" vertex="1">
          <mxGeometry y="60" width="170" height="30" as="geometry" />
        </mxCell>
        <mxCell id="F7WUBohVs05Vko2OsFq5-74" value="Abilities/Interactions" style="swimlane;fontStyle=0;childLayout=stackLayout;horizontal=1;startSize=30;horizontalStack=0;resizeParent=1;resizeParentMax=0;resizeLast=0;collapsible=1;marginBottom=0;whiteSpace=wrap;html=1;" parent="1" vertex="1">
          <mxGeometry x="190" y="-680" width="140" height="60" as="geometry" />
        </mxCell>
        <mxCell id="F7WUBohVs05Vko2OsFq5-75" value="To be decided" style="text;strokeColor=none;fillColor=none;align=left;verticalAlign=middle;spacingLeft=4;spacingRight=4;overflow=hidden;points=[[0,0.5],[1,0.5]];portConstraint=eastwest;rotatable=0;whiteSpace=wrap;html=1;" parent="F7WUBohVs05Vko2OsFq5-74" vertex="1">
          <mxGeometry y="30" width="140" height="30" as="geometry" />
        </mxCell>
        <mxCell id="F7WUBohVs05Vko2OsFq5-81" value="Companion" style="swimlane;fontStyle=0;childLayout=stackLayout;horizontal=1;startSize=30;horizontalStack=0;resizeParent=1;resizeParentMax=0;resizeLast=0;collapsible=1;marginBottom=0;whiteSpace=wrap;html=1;" parent="1" vertex="1">
          <mxGeometry x="540" y="-800" width="230" height="120" as="geometry" />
        </mxCell>
        <mxCell id="F7WUBohVs05Vko2OsFq5-86" value="Story : Got captured to be used to turn MC into a catgirl?" style="text;html=1;align=center;verticalAlign=middle;resizable=0;points=[];autosize=1;strokeColor=none;fillColor=none;" parent="F7WUBohVs05Vko2OsFq5-81" vertex="1">
          <mxGeometry y="30" width="230" height="30" as="geometry" />
        </mxCell>
        <mxCell id="F7WUBohVs05Vko2OsFq5-82" value="Follows player around" style="text;strokeColor=none;fillColor=none;align=left;verticalAlign=middle;spacingLeft=4;spacingRight=4;overflow=hidden;points=[[0,0.5],[1,0.5]];portConstraint=eastwest;rotatable=0;whiteSpace=wrap;html=1;" parent="F7WUBohVs05Vko2OsFq5-81" vertex="1">
          <mxGeometry y="60" width="230" height="30" as="geometry" />
        </mxCell>
        <mxCell id="F7WUBohVs05Vko2OsFq5-83" value="Used to solve certain puzzles" style="text;strokeColor=none;fillColor=none;align=left;verticalAlign=middle;spacingLeft=4;spacingRight=4;overflow=hidden;points=[[0,0.5],[1,0.5]];portConstraint=eastwest;rotatable=0;whiteSpace=wrap;html=1;" parent="F7WUBohVs05Vko2OsFq5-81" vertex="1">
          <mxGeometry y="90" width="230" height="30" as="geometry" />
        </mxCell>
        <mxCell id="F7WUBohVs05Vko2OsFq5-85" style="edgeStyle=orthogonalEdgeStyle;rounded=0;orthogonalLoop=1;jettySize=auto;html=1;entryX=-0.014;entryY=0.125;entryDx=0;entryDy=0;entryPerimeter=0;shape=link;" parent="1" source="F7WUBohVs05Vko2OsFq5-70" target="F7WUBohVs05Vko2OsFq5-81" edge="1">
          <mxGeometry relative="1" as="geometry" />
        </mxCell>
        <mxCell id="F7WUBohVs05Vko2OsFq5-89" value="Abilities/Interactions" style="swimlane;fontStyle=0;childLayout=stackLayout;horizontal=1;startSize=30;horizontalStack=0;resizeParent=1;resizeParentMax=0;resizeLast=0;collapsible=1;marginBottom=0;whiteSpace=wrap;html=1;" parent="1" vertex="1">
          <mxGeometry x="585" y="-620" width="140" height="60" as="geometry" />
        </mxCell>
        <mxCell id="F7WUBohVs05Vko2OsFq5-90" value="To be decided" style="text;strokeColor=none;fillColor=none;align=left;verticalAlign=middle;spacingLeft=4;spacingRight=4;overflow=hidden;points=[[0,0.5],[1,0.5]];portConstraint=eastwest;rotatable=0;whiteSpace=wrap;html=1;" parent="F7WUBohVs05Vko2OsFq5-89" vertex="1">
          <mxGeometry y="30" width="140" height="30" as="geometry" />
        </mxCell>
        <mxCell id="F7WUBohVs05Vko2OsFq5-92" value="Map" style="rounded=1;whiteSpace=wrap;html=1;" parent="1" vertex="1">
          <mxGeometry x="120" y="-480" width="610" height="60" as="geometry" />
        </mxCell>
        <mxCell id="F7WUBohVs05Vko2OsFq5-95" style="edgeStyle=orthogonalEdgeStyle;rounded=0;orthogonalLoop=1;jettySize=auto;html=1;entryX=0.445;entryY=0.012;entryDx=0;entryDy=0;entryPerimeter=0;" parent="1" source="F7WUBohVs05Vko2OsFq5-81" target="F7WUBohVs05Vko2OsFq5-89" edge="1">
          <mxGeometry relative="1" as="geometry" />
        </mxCell>
        <mxCell id="F7WUBohVs05Vko2OsFq5-96" value="Characteristics" style="swimlane;fontStyle=0;childLayout=stackLayout;horizontal=1;startSize=30;horizontalStack=0;resizeParent=1;resizeParentMax=0;resizeLast=0;collapsible=1;marginBottom=0;whiteSpace=wrap;html=1;" parent="1" vertex="1">
          <mxGeometry x="370" y="-410" width="140" height="120" as="geometry" />
        </mxCell>
        <mxCell id="F7WUBohVs05Vko2OsFq5-97" value="Single free roam map(like granny)" style="text;strokeColor=none;fillColor=none;align=left;verticalAlign=middle;spacingLeft=4;spacingRight=4;overflow=hidden;points=[[0,0.5],[1,0.5]];portConstraint=eastwest;rotatable=0;whiteSpace=wrap;html=1;" parent="F7WUBohVs05Vko2OsFq5-96" vertex="1">
          <mxGeometry y="30" width="140" height="30" as="geometry" />
        </mxCell>
        <mxCell id="F7WUBohVs05Vko2OsFq5-98" value="Dungeon tileset when indoor" style="text;strokeColor=none;fillColor=none;align=left;verticalAlign=middle;spacingLeft=4;spacingRight=4;overflow=hidden;points=[[0,0.5],[1,0.5]];portConstraint=eastwest;rotatable=0;whiteSpace=wrap;html=1;" parent="F7WUBohVs05Vko2OsFq5-96" vertex="1">
          <mxGeometry y="60" width="140" height="30" as="geometry" />
        </mxCell>
        <mxCell id="F7WUBohVs05Vko2OsFq5-99" value="forest/park tileset when outdoor" style="text;strokeColor=none;fillColor=none;align=left;verticalAlign=middle;spacingLeft=4;spacingRight=4;overflow=hidden;points=[[0,0.5],[1,0.5]];portConstraint=eastwest;rotatable=0;whiteSpace=wrap;html=1;" parent="F7WUBohVs05Vko2OsFq5-96" vertex="1">
          <mxGeometry y="90" width="140" height="30" as="geometry" />
        </mxCell>
        <mxCell id="F7WUBohVs05Vko2OsFq5-101" value="Navigation&amp;nbsp;" style="swimlane;fontStyle=0;childLayout=stackLayout;horizontal=1;startSize=30;horizontalStack=0;resizeParent=1;resizeParentMax=0;resizeLast=0;collapsible=1;marginBottom=0;whiteSpace=wrap;html=1;" parent="1" vertex="1">
          <mxGeometry x="180" y="-260" width="140" height="90" as="geometry" />
        </mxCell>
        <mxCell id="F7WUBohVs05Vko2OsFq5-102" value="Signs point to area of interest" style="text;strokeColor=none;fillColor=none;align=left;verticalAlign=middle;spacingLeft=4;spacingRight=4;overflow=hidden;points=[[0,0.5],[1,0.5]];portConstraint=eastwest;rotatable=0;whiteSpace=wrap;html=1;" parent="F7WUBohVs05Vko2OsFq5-101" vertex="1">
          <mxGeometry y="30" width="140" height="30" as="geometry" />
        </mxCell>
        <mxCell id="F7WUBohVs05Vko2OsFq5-103" value="Paths link areas of interest" style="text;strokeColor=none;fillColor=none;align=left;verticalAlign=middle;spacingLeft=4;spacingRight=4;overflow=hidden;points=[[0,0.5],[1,0.5]];portConstraint=eastwest;rotatable=0;whiteSpace=wrap;html=1;" parent="F7WUBohVs05Vko2OsFq5-101" vertex="1">
          <mxGeometry y="60" width="140" height="30" as="geometry" />
        </mxCell>
      </root>
    </mxGraphModel>
  </diagram>
</mxfile>
